<svg xmlns="http://www.w3.org/2000/svg" data-name="Layer 1" viewBox="0 0 512 512"><defs><linearGradient id="a" x1="256.005" x2="256.005" y1="2.766" y2="500.825" gradientUnits="userSpaceOnUse"><stop offset="0" stop-color="#00efd1"/><stop offset="1" stop-color="#00acea"/></linearGradient></defs><g data-name="&lt;Group&gt;"><path fill="url(#a)" d="M435.661,244.974a56.747,56.747,0,0,0-46.9,24.822L357,255.98V173.905a21.062,21.062,0,0,0-20.112-21.046L361.9,129.481a56.212,56.212,0,1,0-13.245-14.88L307.709,153H221.572l-32.059-38.8a56.2,56.2,0,1,0-15.026,13.217L195.6,153H193a20.88,20.88,0,0,0-21,20.905v75.644l-46.421,19.142a55.588,55.588,0,1,0,6.724,18.862L172,271.186v.684A21.071,21.071,0,0,0,193,293h65.635l2,84.756a56.69,56.69,0,1,0,19.991-.6L278.644,293H336a21.129,21.129,0,0,0,20.319-15.524l24.324,10.587a56.679,56.679,0,1,0,55.021-43.089ZM108.538,78.8a36.683,36.683,0,1,1,36.682,36.683A36.724,36.724,0,0,1,108.538,78.8Zm-32.2,254.682a36.683,36.683,0,1,1,36.682-36.683A36.725,36.725,0,0,1,76.339,333.477Zm232.654,99.728a36.683,36.683,0,1,1-36.682-36.683A36.724,36.724,0,0,1,308.993,433.205ZM397.074,48.38a36.683,36.683,0,1,1-36.682,36.683A36.725,36.725,0,0,1,397.074,48.38Zm-146.8,152.626c0,5.257-4.681,9.534-10.434,9.534s-10.434-4.277-10.434-9.534,4.681-9.534,10.434-9.534S250.271,195.749,250.271,201.006ZM193,173h37.766C218.4,177,209.4,187.879,209.4,201.1c0,16.285,13.653,29.487,30.434,29.487s30.434-13.178,30.434-29.463c0-13.222-9-24.124-21.366-28.124H336c.6,0,1,.3,1,.905v63.727l-24.411-16.994a29.078,29.078,0,0,0-34.857,1.532l-25.913,21.642a8.835,8.835,0,0,1-10,.914L192,216.779V173.905C192,173.3,192.4,173,193,173ZM336,273H193a1.052,1.052,0,0,1-1-1.13V239.706l40.062,22.477a28.771,28.771,0,0,0,32.54-2.972l25.919-21.641a8.916,8.916,0,0,1,10.693-.484L337,261.986v9.884A1.052,1.052,0,0,1,336,273Zm99.664,65.339a36.683,36.683,0,1,1,36.683-36.683A36.724,36.724,0,0,1,435.661,338.339Z" data-name="&lt;Compound Path&gt;"/></g></svg>